<svg  version="1.0" xmlns="http://www.w3.org/2000/svg"  width="300.000000pt" height="331.000000pt" viewBox="0 0 300.000000 331.000000"  preserveAspectRatio="xMidYMid meet">  <g transform="translate(0.000000,331.000000) scale(0.100000,-0.100000)" fill="#ffffff" stroke="none"> <path d="M1160 2867 c-463 -240 -595 -314 -617 -347 l-23 -33 0 -914 0 -913 33 -35 c21 -22 130 -86 317 -185 460 -243 441 -235 529 -235 l76 0 349 184 c192 101 364 192 383 203 67 40 63 -17 63 994 l0 916 -32 32 c-19 18 -186 113 -393 222 l-360 189 -80 3 -81 4 -164 -85z m610 -204 c173 -92 327 -174 341 -182 26 -16 24 -17 -333 -201 -197 -102 -368 -185 -381 -185 -30 0 -741 365 -730 375 14 13 636 343 673 357 20 7 53 11 75 8 25 -4 158 -68 355 -172z m-881 -449 c251 -129 351 -183 351 -189 0 -2 -55 -32 -122 -68 -68 -35 -200 -106 -295 -156 -94 -50 -176 -91 -182 -91 -8 0 -11 98 -11 315 0 173 3 315 6 315 4 0 117 -57 253 -126z m1271 -189 c0 -195 -4 -315 -10 -315 -5 0 -74 34 -152 76 -79 42 -212 112 -296 156 -85 44 -150 84 -145 88 4 5 107 59 228 121 121 62 252 130 290 151 39 21 73 38 78 38 4 0 7 -142 7 -315z m-820 -436 c0 -212 -4 -349 -9 -347 -50 18 -647 345 -641 351 9 10 631 344 643 346 4 1 7 -157 7 -350z m552 121 c120 -63 218 -117 218 -120 0 -9 -644 -349 -652 -344 -9 6 -11 678 -2 687 3 3 54 -20 112 -51 59 -31 205 -109 324 -172z m-1095 -319 c528 -283 511 -275 599 -275 82 0 101 8 514 228 129 69 238 126 243 126 4 0 7 -173 7 -385 l0 -384 -62 -34 c-196 -107 -561 -300 -611 -323 -99 -45 -106 -42 -500 167 l-347 184 0 388 c0 213 2 387 5 387 3 0 71 -36 152 -79z"/> </g> </svg> 