<svg width="800" height="800" viewBox="0 0 800 800" fill="none" xmlns="http://www.w3.org/2000/svg">
<path d="M81.6464 409.888C89.5565 361.348 111.309 342.322 121.197 338.876C123.744 381.273 128.029 467.775 124.793 474.607C120.748 483.146 87.9385 507.416 81.6464 500.225C75.3543 493.034 71.7588 470.562 81.6464 409.888Z" fill="#FB9F00" stroke="#340026" stroke-width="14.382"/>
<path d="M720.751 410.879C710.681 362.741 689.279 343.242 679.399 339.775C676.763 382.167 672.582 467.768 675.803 474.607C679.83 483.154 713.107 509.213 720.563 501.215C727.079 494.226 733.331 471.011 720.751 410.879Z" fill="#FB9F00" stroke="#340026" stroke-width="14.382"/>
<path d="M287.489 710.561C278.215 693.007 270.56 666.067 267.714 651.685L351.759 680C356.703 724.943 342.564 763.595 332.882 763.595C322.545 763.595 300.073 734.382 287.489 710.561Z" fill="#FB9F00" stroke="#340026" stroke-width="14.382"/>
<path d="M512.308 711.668C493.991 704.007 470.961 688.071 459.624 678.775L542.51 647.229C574.888 678.789 588.533 717.617 581.058 723.77C573.077 730.339 537.161 722.063 512.308 711.668Z" fill="#FB9F00" stroke="#340026" stroke-width="14.382"/>
<circle cx="400" cy="400" r="285.842" fill="#FFF05D" stroke="white" stroke-width="14.382"/>
<path d="M501.238 132.686C438.378 108.879 369.138 107.987 305.685 130.166C242.232 152.344 188.625 196.175 154.282 253.957C119.939 311.739 107.058 379.775 117.902 446.112C128.745 512.449 162.62 572.843 213.574 616.682L275.839 544.312C241.903 515.115 219.342 474.892 212.12 430.711C204.898 386.53 213.477 341.217 236.35 302.734C259.222 264.251 294.925 235.059 337.186 220.288C379.446 205.517 425.56 206.111 467.425 221.966L501.238 132.686Z" fill="#FFCA3C"/>
<path d="M470.052 677.126C514.004 666.015 554.684 644.61 588.732 614.677C622.78 584.744 649.22 547.141 665.869 504.974C682.518 462.807 688.899 417.284 684.484 372.165C680.069 327.045 664.986 283.623 640.479 245.483L579.532 284.644C597.827 313.118 609.088 345.535 612.384 379.22C615.679 412.904 610.916 446.889 598.486 478.369C586.057 509.849 566.318 537.922 540.899 560.269C515.48 582.615 485.111 598.596 452.298 606.89L470.052 677.126Z" fill="#FAC227"/>
<circle cx="400" cy="400" r="195.955" fill="#F99C00"/>
<path d="M577.476 479.476C533.696 578.448 417.972 623.19 319 579.409L477.543 221C576.515 264.781 621.257 380.504 577.476 479.476Z" fill="white" fill-opacity="0.1"/>
<path d="M596.404 400C596.404 546.067 444.944 596.854 444.944 596.854C444.944 596.854 585.618 528.539 585.618 400C585.618 277.303 475.955 213.483 475.955 213.483C475.955 213.483 596.404 253.933 596.404 400Z" fill="#D26C00"/>
<circle cx="400" cy="400" r="285.842" stroke="#340026" stroke-width="14.382"/>
<path d="M230.113 64.2701C186.967 61.0341 134.832 47.0416 114.158 40.4499C114.158 116.854 185.618 223.82 293.483 252.584C401.348 281.348 469.992 253.162 496.18 235.056C532.584 209.888 564.944 133.353 521.798 92.5846C477.086 50.3375 363.596 47.6409 306.517 44.4948C260.854 41.978 225.468 31.1615 213.483 26.0679L230.113 64.2701Z" fill="#808080"/>
<path d="M315.056 133.034C225.618 116.854 151.461 81.7982 114.158 40.45C114.158 116.854 185.618 223.821 293.483 252.585C401.348 281.349 469.992 253.162 496.18 235.056C532.584 209.888 540.225 124.944 540.225 124.944C540.225 124.944 404.494 149.214 315.056 133.034Z" fill="#5A5A5A"/>
<path d="M318.2 191.46C196.402 161.62 153.256 121.797 115.953 80.4492C143.818 147.865 185.616 223.82 293.481 252.584C401.346 281.348 469.99 253.161 496.177 235.056C532.582 209.887 538.874 169.438 538.874 169.438C538.874 169.438 439.998 221.301 318.2 191.46Z" fill="#3E3E3E"/>
<path d="M230.113 64.2701C186.967 61.0341 134.832 47.0416 114.158 40.4499C114.158 116.854 185.618 223.82 293.483 252.584C401.348 281.348 469.09 251.782 496.18 235.056C540.001 208 564.916 123.454 509.663 82.697C460.16 46.1816 363.596 47.6409 306.517 44.4948C260.854 41.978 225.468 31.1615 213.483 26.0679L230.113 64.2701Z" stroke="black" stroke-width="14.382"/>
<ellipse cx="400" cy="631.011" rx="74.6067" ry="76.4044" fill="#F09101" stroke="white" stroke-width="14.382"/>
<ellipse cx="394.158" cy="624.719" rx="68.764" ry="70.1123" fill="#FFC52B"/>
<ellipse cx="373.933" cy="604.045" rx="41.3483" ry="42.2471" fill="#FBE95C"/>
<ellipse cx="400" cy="631.011" rx="74.6067" ry="76.4044" stroke="#340026" stroke-width="14.382"/>
<path d="M448.81 615.697H444.316V656.146H448.81V670.888H414.832V656.146H419.147V624.686L403.866 670.888H390.563L374.832 625.135V656.146H379.147V670.888H349.664V656.146H354.158V615.697H349.664V600.955H390.832L400.181 629L409.17 600.955H448.81V615.697Z" fill="#AD5701"/>
<rect x="269.663" y="286.742" width="84.4943" height="106.067" rx="40.4494" fill="#340026"/>
<circle cx="325.393" cy="315.506" r="13.4831" fill="white"/>
<path d="M445.843 315.506H530.337V352.36C530.337 374.699 512.227 392.809 489.888 392.809H486.292C463.953 392.809 445.843 374.699 445.843 352.36V315.506Z" fill="#340026"/>
<circle cx="509.663" cy="335.281" r="13.4831" fill="white"/>
<path d="M320.899 433.259C320.899 424.323 328.143 417.079 337.079 417.079H462.921C471.857 417.079 479.101 424.323 479.101 433.258V449.438C479.101 493.125 443.686 528.539 400 528.539V528.539C356.314 528.539 320.899 493.125 320.899 449.438V433.259Z" fill="#340026"/>
<path d="M455.408 422.472H347.093C338.824 440.09 345.445 451.985 349.79 455.73C343.498 457.978 333.7 468.315 344.846 491.685C355.992 515.056 390.539 522.397 406.419 523.146C421.7 520.749 453.52 510.831 458.554 490.337C463.588 469.843 456.457 458.727 452.262 455.73C463.768 445.303 459.153 429.213 455.408 422.472Z" fill="#BADBEC"/>
<path d="M417.978 422.472H347.093C338.824 440.09 345.445 451.985 349.79 455.73C343.498 457.978 333.7 468.315 344.846 491.685C355.992 515.056 390.539 522.397 406.419 523.146C406.419 523.146 416.989 520.27 422.022 499.775C427.056 479.281 418.577 468.614 414.382 465.618C425.888 455.191 421.723 429.213 417.978 422.472Z" fill="white"/>
<path d="M337.079 422.472H462.921C468.878 422.472 473.708 427.301 473.708 433.258V449.438C473.708 490.146 440.708 523.146 400 523.146C359.292 523.146 326.292 490.146 326.292 449.438V433.259C326.292 427.301 331.121 422.472 337.079 422.472Z" stroke="black" stroke-width="10.7865"/>
</svg>
